<svg xmlns="http://www.w3.org/2000/svg" fill="#EBDFF3" viewBox="0 0 564.78 433.24"><title>342423iconRecurso 2</title><g id="Capa_2" data-name="Capa 2"><g id="Capa_2-2" data-name="Capa 2"><rect x="377.88" y="175.26" width="30.71" height="256.37"/><path d="M564.77,307.17H534.06v95.35H494.27V0H463.56V111.11L406.91.33l-27.33,0L322.42,111.7V111L379.55.3,322.42,111.07V15.55l-4.08-4.07-6.72-6.76L307.07.17l9.55,9.59L307.06.2h-86L205.71,15.55V159.9H150.5V.28L135.15.2,118.24.31h0l.12-.13-.14.14H118l-.24.48L85.07,64.17,117.76.79,118,.3,30.71,169.53V0H0V433.24H30.71V235.32L119.79,63V433.24H150.5V190.61h55.21V433.24h30.71V190.61H291.7V433.24h30.72V179l70.8-138,70.34,137.56V433.24h85.86l15.36-15.36ZM291.7,159.9H236.42v-129H291.7Z"/></g></g></svg>